<?xml version="1.0" encoding="UTF-8"?>
<svg id="Layer_1" xmlns="http://www.w3.org/2000/svg" version="1.1" viewBox="0 0 850.4 850.4">
  <!-- Generator: Adobe Illustrator 29.2.1, SVG Export Plug-In . SVG Version: 2.1.0 Build 116)  -->
  <defs>
    <style>
      .st0, .st1, .st2, .st3, .st4, .st5, .st6, .st7, .st8, .st9, .st10, .st11, .st12, .st13, .st14, .st15, .st16, .st17, .st18, .st19, .st20, .st21 {
        stroke-miterlimit: 10;
      }

      .st0, .st1, .st2, .st5, .st10, .st13, .st15, .st16, .st17, .st18, .st20, .st21 {
        stroke-width: 2px;
      }

      .st0, .st5, .st6, .st10, .st16, .st21 {
        stroke: #6d6e71;
      }

      .st0, .st15 {
        fill: #231f20;
      }

      .st1, .st2, .st13, .st15, .st20 {
        stroke: #231f20;
      }

      .st1, .st5 {
        fill: #1a1718;
      }

      .st3 {
        fill: #c6c1c2;
      }

      .st3, .st4, .st7, .st8, .st9, .st11, .st12, .st18, .st19 {
        stroke: #fff;
      }

      .st4 {
        fill: #e2e0e0;
      }

      .st6 {
        fill: #5c5758;
      }

      .st7 {
        fill: none;
      }

      .st8, .st14 {
        fill: #7b7979;
      }

      .st9 {
        fill: #a9a1a3;
      }

      .st10 {
        fill: #1c1919;
      }

      .st11 {
        fill: #efebec;
      }

      .st12 {
        fill: #d6d5d5;
      }

      .st13 {
        fill: #090808;
      }

      .st14, .st17 {
        stroke: #808285;
      }

      .st16, .st17, .st18 {
        fill: #4f4c4d;
      }

      .st19 {
        fill: #a7a5a6;
      }

      .st20 {
        fill: #121010;
      }

      .st22 {
        fill: #8c8285;
      }

      .st21 {
        fill: #332d2f;
      }
    </style>
  </defs>
  <path class="st7" d="M782.4,290.9c-1.7,2.4-3.6,4.6-5.7,6.6-.2.2-.5.4-.7.6.2-.3.4-.5.6-.8,1.8-2.3,3.7-4.5,5.8-6.5Z"/>
  <path class="st7" d="M690.5,193.7c-.3-.6-.7-1.2-1.1-1.8,0,0,0,0,.1-.1.3.6.6,1.3,1,1.9Z"/>
  <path class="st7" d="M693,198.3c-.9-1.5-1.7-3.1-2.5-4.7.9,1.5,1.7,3.1,2.5,4.7Z"/>
  <path d="M707.7,218.6c-2.7,2.1-5.2,4.4-7.4,7-.6-9.7-3.2-18.8-7.2-27.1,4.1,7.2,9,14,14.5,20.1Z"/>
  <path class="st7" d="M693,198.3c-.9-1.5-1.7-3.1-2.5-4.7.9,1.5,1.7,3.1,2.5,4.7Z"/>
  <path class="st13" d="M743.2,105c-9.6,15.1-23.2,27.4-39.3,35.4-7.9,3.9-16.3,6.8-25.2,8.4-5.9,1.1-12,1.7-18.2,1.7-11.2,0-21.9-1.9-31.9-5.3-9.5-3.3-18.4-8-26.3-13.8-17.2-12.8-30.1-31-36.1-52.2-2.4-8.5-3.7-17.4-3.7-26.6s1.7-20.6,4.7-30c2.6-8.2,6.3-15.9,10.9-23h156.7c-6.6,13.8-10.3,29.2-10.3,45.5s0,4.7.2,7.1c1.3,19.6,7.9,37.7,18.5,53Z"/>
  <path class="st2" d="M851.5-.5v148.8c-6.9,1.4-14.1,2.2-21.5,2.2-36,0-67.7-18-86.8-45.5-10.6-15.2-17.2-33.3-18.5-53-.2-2.3-.2-4.7-.2-7.1,0-16.3,3.7-31.7,10.3-45.5h116.7Z"/>
  <path class="st13" d="M237.5,58c0,.2,0,.3,0,.5,0,3.4-.2,6.7-.6,9.9-2.6,21.4-13.1,40.3-28.5,53.8-14.9,13.1-34.4,21.1-55.8,21.2-.2,0-.3,0-.5,0-11.7,0-22.8-2.3-32.9-6.6-9.4-3.9-18-9.5-25.4-16.4,2.1-2.4,4-4.9,5.8-7.5,7.3-10.5,12.6-22.5,15.2-35.5h0c1.2-6,1.8-12.2,1.8-18.6,0-22.6-7.9-43.3-21.1-59.5h118.9c14.4,15.3,23.2,35.9,23.2,58.5Z"/>
  <path class="st2" d="M115.5,60c0,6.3-.6,12.5-1.8,18.5h0c-2.6,13-7.8,25-15.2,35.5-1.8,2.6-3.7,5.1-5.8,7.5-17.3,20.2-43,33-71.7,33s-7.3-.2-10.9-.6c-3.6-.4-7.1-1-10.6-1.8V.5h94.9c13.2,16.2,21.1,36.9,21.1,59.5Z"/>
  <path class="st1" d="M133.5,189.5c0,19-5.1,36.7-14.1,52-13.1,22.4-34.4,39.4-59.8,46.8-2,.6-4,1.1-6,1.6-7.4,1.7-15.2,2.6-23.1,2.6s-6.7-.2-10-.5c-6.9-.7-13.6-2-20-4v-137c3.5.8,7,1.4,10.6,1.8,3.6.4,7.2.6,10.9.6,28.7,0,54.4-12.8,71.7-33,7.4,6.9,15.9,12.5,25.4,16.4,9.2,15.4,14.4,33.4,14.4,52.6Z"/>
  <path class="st2" d="M198.5,767c0,31.6-11.1,60.7-29.6,83.5H.5v-198.7c19.3-11,41.7-17.3,65.5-17.3s15.2.7,22.6,1.9c9.7,1.7,19,4.4,27.8,8,19.4,8,36.5,20.4,50,36.1,13.7,15.8,23.6,34.9,28.6,56,2.3,9.8,3.5,20,3.5,30.5Z"/>
  <path class="st13" d="M116.5,640.5c0,1.3,0,2.6,0,3.9-8.8-3.6-18.2-6.3-27.8-8-7.3-1.3-14.9-1.9-22.6-1.9-23.8,0-46.2,6.3-65.5,17.3v-94.7c8.8-3,18.2-4.5,28-4.5,28.8,0,54.4,13.8,70.4,35.2,6.7,8.8,11.7,19,14.6,30h0c2,7.3,3,14.9,3,22.8Z"/>
  <path class="st20" d="M322.5,770.5c0,1.8,0,3.6-.1,5.4-.3,5.7-1,11.3-2.2,16.8-5,23-17.7,43.3-35.2,57.8h-116.1c18.5-22.8,29.6-51.9,29.6-83.5s-1.2-20.7-3.5-30.5c-5-21-14.9-40.1-28.6-56,15.3-8.9,33.1-14,52.1-14s31,3.6,44.5,10c6.2,2.9,12,6.4,17.4,10.4,25.6,18.9,42.1,49.3,42.1,83.6Z"/>
  <path class="st5" d="M295.5,633c0,11.8-2,23.2-5.6,33.8-9.9,1-19.1,4.4-26.9,9.7-13.5-6.4-28.6-10-44.5-10s-36.8,5.1-52.1,14c-13.5-15.6-30.6-28.1-50-36.1,0-1.3,0-2.6,0-3.9,0-7.9-1-15.5-3-22.8h0c-2.9-11-8-21.1-14.6-30,8.8-18,22.7-33.1,39.8-43.4,9.1-5.5,19.2-9.6,29.8-12.1,7.5-1.8,15.4-2.7,23.5-2.7,25.9,0,49.7,9.5,67.8,25.3h0c21.9,19,35.7,47,35.7,78.2Z"/>
  <path class="st0" d="M168.5,531.5c0,.2,0,.5,0,.7-10.7,2.5-20.7,6.6-29.8,12.1-17.1,10.3-31,25.4-39.8,43.4-16-21.4-41.6-35.2-70.4-35.2s-19.2,1.6-28,4.5v-86.3c1.2-1.4,2.4-2.8,3.6-4.1,17.3-18.5,42-30.1,69.4-30.1s20.9,1.8,30.4,5c3.6,1.2,7.2,2.7,10.6,4.3,21,10,37.7,27.5,46.7,49,2.5,5.9,4.4,12.1,5.6,18.5,1.1,5.9,1.7,11.9,1.7,18.2Z"/>
  <path class="st2" d="M851.5,654.2v196.3h-145c-9-18.3-14-38.8-14-60.5s0-3.7.1-5.6c1.1-26.5,9.6-51,23.6-71.6,8.1-11.9,18.1-22.5,29.4-31.4,12.9-10,27.5-17.8,43.5-22.7,12.9-4,26.7-6.2,40.9-6.2s14.5.6,21.5,1.7Z"/>
  <path class="st13" d="M851.5,546.4v107.8c-7-1.1-14.2-1.7-21.5-1.7-14.3,0-28,2.2-40.9,6.2-15.9,5-30.6,12.7-43.5,22.7-4.8-10.2-7.9-21.3-8.8-33.1-.2-2.6-.3-5.2-.3-7.8,0-16,3.9-31,10.8-44.3,4.2-8,9.4-15.3,15.6-21.8,9.8-10.4,22-18.5,35.6-23.7,10.6-4,22-6.2,34-6.2s12.9.6,19,1.9Z"/>
  <path class="st5" d="M736.8,648.3c.9,11.8,4,22.9,8.8,33.1-11.4,8.8-21.3,19.4-29.4,31.4-13.6-9.6-30.3-15.3-48.2-15.3s-28.1,3.7-39.9,10.2c-11.6,6.3-21.6,15.4-29,26.3-8.7-14.6-13.9-31.6-14.5-49.8,0-1,0-2.1,0-3.1,0-47.7,32.2-87.8,76.1-99.8,8.7-2.4,17.9-3.7,27.4-3.7,22.1,0,42.5,6.9,59.3,18.7-6.9,13.3-10.8,28.3-10.8,44.3s.1,5.3.3,7.8Z"/>
  <path class="st0" d="M798.5,550.7c-13.6,5.1-25.8,13.3-35.6,23.7-6.2,6.5-11.4,13.8-15.6,21.8-16.8-11.8-37.3-18.7-59.3-18.7s-18.7,1.3-27.4,3.7c0-1.4-.1-2.8-.1-4.2,0-34,23.8-62.5,55.7-69.7,5.1-1.2,10.4-1.8,15.8-1.8,30.2,0,56,18.7,66.5,45.2Z"/>
  <path class="st17" d="M851.5,396.8v149.6c-6.1-1.2-12.5-1.9-19-1.9-12,0-23.4,2.2-34,6.2-10.5-26.5-36.3-45.2-66.5-45.2s-10.7.6-15.8,1.8c-1.1-5.9-1.7-12-1.7-18.3,0-55,44.5-99.5,99.5-99.5s25.9,2.6,37.5,7.3Z"/>
  <path class="st20" d="M692.5,790c0,21.7,5,42.2,14,60.5h-84.8c-22.4-15-37.2-40.5-37.2-69.5s5.4-33.7,14.5-47.1c7.4-10.9,17.4-19.9,29-26.3,11.9-6.5,25.5-10.2,39.9-10.2s34.6,5.7,48.2,15.3c-14,20.6-22.5,45.1-23.6,71.6,0,1.9-.1,3.7-.1,5.6Z"/>
  <path class="st0" d="M621.7,850.5h-123.4c-20.1-17.7-32.8-43.6-32.8-72.5,0-53.3,43.2-96.5,96.5-96.5s15.3.9,22.5,2.6c.5,18.2,5.8,35.1,14.5,49.8-9.2,13.4-14.5,29.6-14.5,47.1,0,29,14.8,54.5,37.2,69.5Z"/>
  <path class="st17" d="M344.5,827.5c0,8.7-3,16.7-8,23h-51.5c17.5-14.5,30.2-34.8,35.2-57.8,14.2,5.2,24.4,18.8,24.4,34.8Z"/>
  <path class="st0" d="M353.5,724.5c0,22.3-12.6,41.7-31.1,51.4,0-1.8.1-3.6.1-5.4,0-34.3-16.6-64.7-42.1-83.6-5.4-4-11.2-7.5-17.4-10.4,7.8-5.3,17-8.7,26.9-9.7,1.9-.2,3.7-.3,5.6-.3,32,0,58,26,58,58Z"/>
  <path class="st17" d="M259.8,554.8c-18.1-15.8-41.9-25.3-67.8-25.3s-16,.9-23.5,2.7c0-.2,0-.5,0-.7,0-6.2-.6-12.3-1.7-18.2,9.1-5,19.6-7.8,30.7-7.8,30.3,0,55.7,21,62.3,49.3Z"/>
  <path class="st16" d="M114.5,445.8c-3.4-1.6-6.9-3.1-10.6-4.3-9.5-3.2-19.8-5-30.4-5-27.4,0-52,11.6-69.4,30.1-2.4-6.2-3.6-13-3.6-20.1,0-31.5,25.5-57,57-57s47.2,16.8,54.4,39.9c1.6,5.2,2.5,10.7,2.6,16.3Z"/>
  <path class="st1" d="M57.5,313c0,16.2-5.5,31.1-14.6,43-10.3,13.3-25.2,22.9-42.4,26.2v-94.1c6.4,2,13.1,3.3,20,4,3.3.3,6.6.5,10,.5,8,0,15.7-.9,23.1-2.6,2.5,7.2,3.9,15,3.9,23.1Z"/>
  <path class="st21" d="M151.7,334.1h0c-11.2,23.3-35.1,39.4-62.7,39.4s-33.8-6.6-46.1-17.5c9.2-11.9,14.6-26.8,14.6-43s-1.4-15.9-3.9-23.1c2-.5,4-1,6-1.6,17.1,10.3,37.1,16.2,58.4,16.2s11.4-.4,16.9-1.3c2.6,11.9,8.5,22.5,16.8,30.8Z"/>
  <path class="st14" d="M183.5,458c0,16-9.1,29.9-22.3,36.8-9-21.5-25.7-39-46.7-49,0-5.7-1-11.2-2.6-16.3,7.6-8,18.3-12.9,30.1-12.9,22.9,0,41.5,18.6,41.5,41.5Z"/>
  <path class="st15" d="M231.5,191c0,12.5-2,24.5-5.8,35.8-.8,2.3-1.6,4.7-2.6,7-11.8,29.2-35.5,52.3-65,63.5-7.4,2.8-15.2,4.9-23.3,6.1-5.5.8-11.2,1.3-16.9,1.3-21.4,0-41.3-5.9-58.4-16.2,25.4-7.4,46.7-24.4,59.8-46.8,9-15.3,14.1-33,14.1-52s-5.3-37.2-14.4-52.6c10.1,4.2,21.3,6.6,32.9,6.6s.3,0,.5,0c21.4-.1,40.9-8.1,55.8-21.2,14.5,19.1,23.2,42.9,23.2,68.7Z"/>
  <path class="st16" d="M321.5,143c0,46.7-37.8,84.5-84.5,84.5s-7.6-.3-11.3-.8c3.7-11.2,5.8-23.3,5.8-35.8,0-25.8-8.6-49.6-23.2-68.7,15.4-13.5,25.9-32.5,28.5-53.8,9.9,5.8,21.4,9,33.6,9s11.6-.8,17.1-2.2c20.6,15.4,33.9,40,33.9,67.7Z"/>
  <path class="st6" d="M275.8,328.5c0,14.9-12.1,27-27,27s-17-4.4-21.9-11.2c-9.1,5.2-19.7,8.2-30.9,8.2-17.3,0-33-7-44.3-18.4h0c-8.3-8.3-14.2-19-16.8-30.8,8.1-1.2,15.9-3.3,23.3-6.1,29.5-11.2,53.2-34.3,65-63.5,20.9,10.1,35.3,31.5,35.3,56.3s-.5,8.7-1.3,12.8c10.8,3.5,18.6,13.7,18.6,25.7Z"/>
  <path class="st1" d="M337.5,10.5c0,31.1-21.2,57.3-49.9,64.8-5.5,1.4-11.2,2.2-17.1,2.2-12.3,0-23.8-3.3-33.6-9,.4-3.3.6-6.6.6-9.9,0-.2,0-.3,0-.5,0-22.6-8.8-43.2-23.2-58.5h122.3c.6,3.6.9,7.3.9,11Z"/>
  <path class="st1" d="M567.2,22.5c-3,9.5-4.7,19.6-4.7,30s1.3,18.1,3.7,26.6c-7.8,4.1-16.7,6.4-26.2,6.4-22.6,0-42.1-13.3-51.1-32.4-3.4-7.3-5.4-15.5-5.4-24.1s3-20.9,8.3-29.5h86.3c-4.6,7.1-8.2,14.8-10.9,23Z"/>
  <path class="st20" d="M851.5,148.3v89.6c-11.6,7.4-24.7,12.8-38.7,15.5-6.6,1.3-13.5,2-20.5,2.1-.4,0-.9,0-1.3,0-18.9,0-36.7-4.7-52.4-12.9-11.7-6.1-22.1-14.3-30.9-24-5.5-6.1-10.4-12.9-14.5-20.1,0,0,0-.1-.1-.2-.8-1.6-1.6-3.1-2.5-4.7-.3-.6-.6-1.3-1-1.9-6.3-13.1-10.2-27.6-10.9-42.9,8.9-1.7,17.4-4.5,25.2-8.4,16.1-8,29.8-20.3,39.3-35.4,19,27.5,50.8,45.5,86.8,45.5s14.6-.8,21.5-2.2Z"/>
  <path class="st7" d="M782.4,290.9c-1.7,2.4-3.6,4.6-5.7,6.6-.2.2-.5.4-.7.6.2-.3.4-.5.6-.8,1.8-2.3,3.7-4.5,5.8-6.5Z"/>
  <path class="st1" d="M689.6,191.8s0,0-.1.1c-9.8,9.7-23.2,15.6-38,15.6-22.2,0-41.3-13.4-49.6-32.6-1.5-3.6-2.7-7.4-3.5-11.3-.6-3.3-.9-6.6-.9-10,0-7.9,1.7-15.4,4.8-22.2,7.9,5.9,16.8,10.6,26.3,13.8,10,3.5,20.8,5.3,31.9,5.3s12.3-.6,18.2-1.7c.8,15.3,4.6,29.8,10.9,42.9Z"/>
  <path class="st0" d="M597.5,153.5c0,3.4.3,6.8.9,10-12.3,5.4-22.9,14.1-30.6,24.9-4.3.7-8.8,1.1-13.3,1.1-46.4,0-84-37.6-84-84s6.9-38.1,18.4-52.4c9,19.2,28.5,32.4,51.1,32.4s18.3-2.3,26.2-6.4c6,21.2,18.9,39.5,36.1,52.2-3,6.8-4.8,14.3-4.8,22.2Z"/>
  <path class="st0" d="M687.5,260c0,3.6.4,7.1,1.1,10.5-13,19.9-35.5,33-61.1,33-40.3,0-73-32.7-73-73s4.9-30.2,13.3-42.1c7.7-10.9,18.3-19.6,30.6-24.9.7,4,1.9,7.8,3.5,11.3,8.3,19.2,27.4,32.6,49.6,32.6s28.2-6,38-15.6c.4.6.7,1.2,1.1,1.8.8,1.6,1.6,3.1,2.5,4.7,0,0,0,.1.1.2,4,8.3,6.5,17.4,7.2,27.1-8,9.2-12.8,21.2-12.8,34.4Z"/>
  <path class="st7" d="M693,198.3c-.9-1.5-1.7-3.1-2.5-4.7.9,1.5,1.7,3.1,2.5,4.7Z"/>
  <path class="st10" d="M752.2,311.1c-3.9.9-8,1.4-12.2,1.4-22.8,0-42.2-14.5-49.4-34.8-.8-2.3-1.5-4.7-2-7.2-.7-3.4-1.1-6.9-1.1-10.5,0-13.2,4.8-25.2,12.8-34.4,2.2-2.6,4.7-4.9,7.4-7,8.8,9.7,19.3,17.8,30.9,24-2,6.8-3.1,14-3.1,21.4s0,2.3,0,3.5c.8,16.5,6.9,31.6,16.7,43.6Z"/>
  <path class="st7" d="M776.7,297.6c-.2.2-.5.4-.7.6.2-.3.4-.5.6-.8,0,0,0,.1,0,.2Z"/>
  <path class="st0" d="M812.8,253.4c-6.6,1.3-13.5,2-20.5,2.1-.4,0-.9,0-1.3,0-18.9,0-36.7-4.7-52.4-12.9-2,6.8-3.1,14-3.1,21.4s0,2.3,0,3.5c.8,16.5,6.9,31.6,16.7,43.6,4.2,5.1,9,9.6,14.4,13.5,5,3.6,10.5,6.6,16.3,8.9,8.4,3.3,17.5,5.1,27.1,5.1,15.4,0,29.6-4.7,41.5-12.6v-88c-11.6,7.4-24.7,12.8-38.7,15.5Z"/>
  <circle class="st18" cx="493.5" cy="606.5" r="54"/>
  <circle class="st8" cx="598" cy="524" r="20.5"/>
  <circle class="st8" cx="646" cy="447" r="22.5"/>
  <circle class="st12" cx="493.5" cy="484.5" r="15"/>
  <circle class="st19" cx="561.5" cy="417.5" r="7"/>
  <circle class="st8" cx="370.5" cy="601.5" r="33"/>
  <circle class="st19" cx="338" cy="531" r="7.5"/>
  <circle class="st8" cx="368.5" cy="770.5" r="26"/>
  <circle class="st22" cx="259" cy="464" r="27.5"/>
  <circle class="st18" cx="171" cy="396" r="12.5"/>
  <circle class="st9" cx="384.5" cy="244.5" r="14"/>
  <circle class="st19" cx="360" cy="93" r="6.5"/>
  <circle class="st9" cx="297.5" cy="243.5" r="16"/>
  <circle class="st12" cx="342" cy="315" r="11.5"/>
  <circle class="st3" cx="475" cy="285" r="18.5"/>
  <circle class="st11" cx="441" cy="402" r="6.5"/>
  <circle class="st4" cx="377" cy="447" r="10.5"/>
  <circle class="st3" cx="436" cy="75" r="10.5"/>
  <circle class="st12" cx="541" cy="338" r="13.5"/>
  <circle class="st19" cx="625.5" cy="339.5" r="13"/>
  <path class="st0" d="M782.9,333.4c-1.2,8-3.9,15.4-7.9,22-10.3,16.8-28.8,28.1-50,28.1-32.3,0-58.5-26.2-58.5-58.5s9.5-36.7,24.1-47.3c7.3,20.3,26.6,34.8,49.4,34.8s8.3-.5,12.2-1.4c4.2,5.1,9,9.6,14.4,13.5,5,3.6,10.5,6.6,16.3,8.9Z"/>
  <path class="st0" d="M810,338.5c-9.6,0-18.7-1.8-27.1-5.1-1.2,8-3.9,15.4-7.9,22,9,13.3,24.2,22.1,41.5,22.1s26-5.5,35-14.3v-37.3c-11.9,8-26.1,12.6-41.5,12.6Z"/>
</svg>