<?xml version="1.0" encoding="UTF-8"?>
<svg id="Layer_1" xmlns="http://www.w3.org/2000/svg" version="1.1" viewBox="0 0 850.4 850.4">
  <!-- Generator: Adobe Illustrator 29.2.1, SVG Export Plug-In . SVG Version: 2.1.0 Build 116)  -->
  <defs>
    <style>
      .st0 {
        fill: #fff;
        stroke: #231f20;
        stroke-miterlimit: 10;
      }

      .st1 {
        fill: #231f20;
      }
    </style>
  </defs>
  <path class="st0" d="M850.8,734.2c-.5-4.2-1-8.3-1.5-12.4-10.3-44.7-11.3-92.4-29.8-135.2-2.4-4.1-5-8-7.8-12-2.1-3.3-4-6.7-5.7-10.2-1.7-3.5-3-7.2-4-11.1-1.5-5.4-2-10.5-1.8-15.5.8-14.8,8.7-27.9,18.9-39.9,3.4-4,7-7.9,10.7-11.6,13.8-22,16.4-48.3,13.7-74.1-.6-5.2-1.3-10.3-2.2-15.4-1-5.4-2.1-10.8-3.1-16.2-1.2-4.7-2-9.5-2.5-14.3-.6-4.8-.9-9.8-1.2-14.7.6-19.5-1.4-40-15.4-56.5-2-1.9-7-2.9-11-1,10-11.7,20-38,3-44.8-17-6.8-50,3.9-54-22.4-.3-4.5-.2-9,0-13.6,1.7-31.9,12.8-64.8-2.1-95.4-3-4.9-8-8.8-14-6.9-3.8,1-7.1,3.3-10.2,6-3.1,2.8-6,6-9,8.7-4.8,5.7-13.8,8.6-20.4,4-4.9-3.1-9.3-8.4-13.1-11.8-2.8-2.6-5.5-5.4-7.9-8.5-7.3-9.3-13-20.9-20.2-29.9-3.4-4.9-6.8-9.9-10.3-14.8-17.4-24.2-38.1-44.6-68.3-31.9-3.7,1.2-7.5,2.4-11.4,3.1-3.9.6-7.9.8-11.9.4-4-.4-8.1-1.5-12.3-3.2-39-15.6-78-38-121.3-27.8-3.8.5-7.5.9-11.3,1.3-11.4,1.2-21.4,2.2-32.4,1.2-52.5-3.7-103.9,2.6-154.5,14.5-5.7,1.6-11.4,3.3-16.7,5.9-4.7,4-11.7,5.9-13.7,10.8-16,39-50,45.8-80,16.6-2-1-6-1.9-7,0-5,12.7,1,26.3,5,39,7,18.5-13,29.2-28.5,32.6-3.5,1.2-7,2.1-10.7,2.8-11,2.3-22.8,3.5-32.8,9.4-8,4.9-6,15.6-10.6,22.7-1.8,5.1-4.2,10.3-6.8,15.4-2.6,5.1-5.5,10.2-8,15.5-1.7,3.5-3.3,7-4.6,10.7-1,4.9-1.9,9.8-2.8,14.7-4.2,25.3,7.8,50.6,4.8,75.9-3,29.2-7,57.5-2.7,87,.1,5.3-.1,10.5-.5,15.7-3.8,27.8,8.2,54.1,7.2,82.4,0,5.4-.6,10.6-1.7,15.8-4.3,8.5-7.2,16.9-8.9,25.3-1.7,8.4-2.2,16.8-1.8,25.2.4,8.4,1.7,16.8,3.5,25.3s4.4,17,7.3,25.5c.7,4.8,1.2,9.6,1.4,14.3,1,19.9-1.8,40-7.3,60.7-1.1,4.1-2.3,8.3-3.5,12.5-2,3.9-2,8.7-1,12.6,7.5,26.8,1.8,52.9,4.3,78.9.5,5.2,1.3,10.4,2.7,15.6,4,18.5,24,21.4,40,21.4s15.1.2,22.5.7c3.7.2,7.5.5,11.2.9,52.3,11.1,104.3,1.3,155-8.3,5.3-.8,10.7-1.2,16.2-1.3,5.5,0,11,.2,16.5,1,4.3.3,8.5.6,12.6,1.1,5.6.5,11.2,1.2,16.8,1.7,10.2.3,19.2,2.2,29.2,1.2,15-1.9,28-4.9,43-4.9,5-1,11-1.9,16.3-4.9,3.2-1.6,6.2-3.5,8.9-5.8,2.7-2.3,5.2-4.9,7.4-7.8,2.9-4,5.5-8.1,8.4-11.8,5-6.8,14-11.7,21-6.8,4.3,2.9,8.4,6.1,12.6,9.5,4.1,3.4,8.2,6.9,12.3,10.4,3.9,3.5,8.2,6.7,12.6,9.5,39.5,26,91.5,9.5,131.6-6.6,4.4-.2,8.9.5,12.9,1.5,41,12.7,83,29.2,125,10.2,3.8-1.7,7.8-3,11.7-4,19.9-5,41.3-2.5,61-3.2,0,0,1.1-1,3.2-3,15.1-10.8,30.1-24.4,29.3-43.6.4-4.7.6-9.5.5-14.3ZM552.2,315.9c-4.2-1.2-7.2.8-9.9,3-.9,1.2-1.5,2.7-1.8,4.2-1.5,6.2-1.5,12.7-5.5,14-13,1.9-26-9.7-39.6-4.2-1.4.2-2.9.4-4.3.6-10.1,1.5-20.1,3.2-29,6.7-4.3,2.1-8.8,3.8-13.3,4.9-1.4.3-2.7.6-4.1.8-8.7,2-10.7-7.7-14.7-13.6-3-2.9-6,0-9,1-3.3,1.9-6.7,4.8-10.4,6.3-.9.4-1.9.7-2.9.8-11.7-.3-10.7-16.9-19.7-18.8-3.5-.5-6.8,1.9-10.2,4.4-1.2.8-2.3,1.6-3.5,2.3-12.2,1-25.2,1-37.6.9-1.4-.3-2.7-.6-4-.9-2.6-.5-5.2-.6-7.7,0-6,1.9-6,16.6-16.9,14.2-1.2-.3-2.4-.8-3.6-1.3-1.2-.6-2.3-1.3-3.5-2.1-.8-.7-1.7-1.4-2.5-2.2-6.5-8.5-25.5-1.7-23.5-15.4,2-7.8,16-21.4,3-25.8-1.1-.3-2.1-.6-3-1-2.7-1.2-4.5-3.4-3-8.3,1-2.9,1.9-5.9,2.8-9s.9-3,1.3-4.6c1.8-27.4,29.8-44,54.8-50.8,3-1,0,8.8,1.4,14.1,0,2.2.6,3.4,2.6,2.4,17-9.7,26-32.1,47.2-37.2,1.5-.2,2.9-.4,4.4-.5,12.5-2.2,24.5,3.6,36.5,3.6,4.7.6,7.6-3.9,11.5-6.4,1-.6,2-1.1,3.2-1.4,14.4-1,24.4,8.7,36.4,12.6,4,1.5,8-.2,12-1.6,1.4-.4,2.8-.8,4.2-.9,1.8.6,4.8.6,6.8,1.6,3.4,3.3,6,6.8,8.6,10.4.8,1.2,1.7,2.4,2.5,3.6,6.9,9.4,14.9,19.1,22.2,29.1,1.1,1,2.3,1.9,3.7,2.7,1,.5,1.9,1,2.8,1.6s1.7,1.3,2.5,2c9.7,9.1,3.7,21.7,7.7,32.4,2,4.9,10,6.8,12,12.7.4,1.3,1.5,2.6,2.4,3.9,1.9,2.7,3.1,5.5-4.1,8.8-1.6.1-3.3.1-5.1.1Z"/>
  <path class="st1" d="M407.3,25.6c-19.3,3.8-37.3-3.7-55.6-1.7-3.7.5-7.4,1.1-11,1.8-10.2,1.8-20.3,4.1-30.2,6.7-3.3.9-6.6,1.8-9.8,2.8-26.8,12.8-55.8,20.8-82.1,35.9-2.8,1.7-5.6,3.4-8.4,5.1-3,1.9-5.9,3.8-8.8,5.8-24.5,14.9-29.5,43.9-48.5,62.6-12,11.2-34,10.3-43.1,27-2.1,2.5-4.1,5-6,7.6-19.1,25.7-29.7,55.1-38.9,87.1-3,8.4-13,13.1-20,20.6-11,14-6,34.6,5,47.7,23.8,27.5,9,69.1,9.8,105.4,0,3.3.3,6.6.6,9.8-2.4,25.2-19.4,45.8-29.4,68.3-2,6.6-3,15.9,4,17.8,12,4.7,27,11.2,25.5,25.3,0,2.5,0,5,0,7.5v50c.4,21-6.4,40.8-11.5,61.7-.7,3-1.4,6-2,9,1,19.7,3,38.4,1,59-.4,4.4-.1,8.3.6,11.7s2,6.2,3.7,8.6c11.7,14.4,29.7,23.8,49.7,21,24-4.7,48-18.7,69.1-2,1.9.8,3.9,1.6,5.9,2,17,2.8,35-5.6,41-21.5.8-2.8,1.3-5.6,1.7-8.4-2.7-47.7,2.3-102-47.7-132.9-1-.9-1-3.7-1-5.6,1.2-2.7,2.7-5.3,4.2-7.8,9.5-15.4,23.1-28.3,23.5-46.7,0-2.6-.2-5.3-.6-8.2-2.1-16.9-2.1-33.8,2.9-50.6,2-8.4-4-15.9-3-25.3,1-2.8,2-7.5,5-6.6,18,9.4,36,13.1,56,9,3-.6,6-1.5,9-2.9,6-2.7,12-7.1,18-13.6,3-3.7,15,4.7,21.3,10.1,2.2,2.1,4.4,4.3,6.5,6.6,4.3,4.5,8.5,9.2,13.2,13.3,3,2.8,8,5.6,12,2.8,2.2-1.3,4.2-2.9,5.9-4.7s3.4-3.7,4.8-5.8c5.2-7.3,10.2-18.6,18.2-15.8,28,8.4,69,25.3,63.1,59.8.5,2.9,1.2,5.9,2.3,8.6,2.1,5.5,5.6,10.2,11.6,12.1,5,.9,9-1.9,12-5.6,14-21.5,18-45.9,37.1-63.6,2.6-1.9,5.3-3.3,8.2-4.2,5.8-1.8,12.2-2,19.7.4,3.4-.2,6.7-.7,10.1-1.4,18.9-8.9,36.9,7,55.9,4.2,12.7-1.9,22.2-10,32.7-15.2,2.6-1.3,5.3-2.4,8.2-3,7.2-1.5,13.2,1.3,19.2,3.2,3,1.4,6,2.8,9,4.1,21,11.8,44,21.1,53,43.6,18-26.2,45-44.9,54-76.8,2-4.7,6-6.6,10.6-7.2,2.3-.8,4.6-1.5,7-2,7.2-1.5,14.8-1.3,22.4.8,2.7.6,4.9.3,6.9-.8,9.6-5.4,10.3-29,6.1-42.3-8-23.4-24-41.2-38.8-59.8-2.3-3-4.4-5.9-6.5-8.9-4.1-5.9-7.8-11.7-10.7-17.5-4-8.4-7-17.8-11-27.4-1.1-2.9-2.2-5.7-3.3-8.6-5.5-14.4-10.1-29.4-13.6-45.4-2-7.5-5-15.9-9.8-22.2-1.1-2.1-2.3-4.2-3.4-6.3-5.8-10.4-12.3-20.5-19.3-30.3-2.1-2.9-4.3-5.8-6.7-8.4-2.8-1.2-4.8-4.9-7.8-5.9-10-2.8-22,0-29-7.5-15-16.8-13-42.1-33.8-54.8-3-2.1-6.1-4.2-9.1-6.3-2.9-1.9-5.8-3.8-8.8-5.7s-5.9-3.7-9-5.4c-12.4-8.3-27.4-9.3-40.4-13.9-20-6.6-36-22.5-58.9-25.7-3.6-.8-7.1-1.6-10.7-2.4-10.8-2.2-21.8-4-33-5.3-2.1-.2-4.2-.5-6.3-.7-11.1-2.4-22.1,1.4-33.1,2.7-2.2.5-4.5,1-6.7,1.5ZM602.5,371.5c-9.5,4.2-21.5,11.7-29.5,5.2-13-8.4-19-27.1-38.3-24.4-2.4,0-4.8,0-7.3,0h-47c-2.6,0-5.1,0-7.8,0-21.7,0-28.7,22.6-44.7,32.9-2,.9-5,1.9-8,.9-18-7.5-24-37.4-48.2-31.8-3,1-6,2.3-8.9,3.8-8.7,4.4-16.9,10.2-25.9,14.9-2,.9-6,.9-8,0-16-5.6-26-22.5-43.9-20.7-2.4,0-4.8,0-7.2,0h-24.8c-2.6,0-5,0-7.4,0-27.8,5.7-63.8-9.3-57.8-40.8.3-3.3,1.2-6,2.5-8.4,6.5-11.9,23.1-15.8,30.6-27.5,6.7-10.9,5-22.5,4.8-34.2,0-2.3,0-4.7.2-7,.5-7,3.8-13.1,8.5-17.9,1.6-1.6,3.3-3.1,5.2-4.4,12.3-11.4,25.3-11.4,41.3-4.9,4,1.9,7-5.6,8-9.4,10-23.4,22-44.9,48.5-52.7,2-.8,4.1-1.4,6.3-2,3.5-1.1,7-2,10.6-2.8,3-.7,5.9-1.3,9-1.7,21.6-.6,29.6,24.7,35.6,40.6,1.5,2.8,3.5,6.3,6,8.4s5.5,2.8,9,0c20-16.8,26-50.5,54-54.3,26-2.8,18,28.1,31,43.1,2,2.3,4,2.8,6.1,2.7s4.3-.9,6.8-1c18.1-10.1,43.1-6.4,54.1,12.4,5,10.3,1,21.5-3.7,31.7-2.5,6.6-4.6,13-4.3,18.9,0,2.8,3,4.7,5,5.6,8.5,2.8,19,2.3,28.8,3.2,3.3.3,6.5.7,9.5,1.6,37.7,20.4,3.7,65.4,6.7,97.2,1,5.6,9,6.6,10,10.3,1,2.8-3,6.6-7.2,8.3-2.3,1.4-5.1,2.9-8.3,4.4Z"/>
  <g>
    <path d="M374.9,713.6c-.9-1.6-1.9-4.6-3.9-4.6-3.3.3-6.5.4-9.6.3-1,0-2.1,0-3.1-.2-11.3-1.1-22.3,10.9-31.3-2.1-1-1-4-1-5.6-1.2-1,0-1.9,0-2.9,0s-1.9,0-2.9-.2c-1.2-.1-2.3-.4-3.5-.7-5.1-1-12.1,2-11.1,7,0,4,2,9,4,12.7.4,1,.9,1.9,1.3,2.9,3.7,7.4,5.7,17.4,14.7,16.4,4,0,7-2.5,10.1-4.7.8-.6,1.5-1.1,2.3-1.6,2.6-.7,5.6-2.7,8.2-1.4,1.3,0,2.5-.2,3.6-.3,6-.8,11.4-3,15.9-7.7.7-.8,1.5-1.6,2.1-2.5.8-1.7,1.8-3.7,5.2-3.7.8.7,1.5,1.5,2.2,2.2,6.6,7.2,11.8,17.8,7,27.5-.5.8-1.1,1.6-1.7,2.2-2,2-9,2-11.9,5.9-.6,1.2-1,2.5-1.3,3.8-1.1,5.3-.5,11-3.8,12.4-2.8.6-5.6.2-8.5-.6s-1.9-.6-2.9-.9c-.7.5-1.7-.5-2.7-.5-9,9-7,25-18,31-8,4-9-16-13.9-22.6-.4-1-.9-2-1.4-2.9-.5-.9-1.1-1.7-1.7-2.5-.5,0-1.3.5-2,1.2s-1.6,1.7-2.2,2.5c-.9,1.1-1.7,2.2-2.7,3.2-2,1-3,2-5,1-7-4-7-16-15.9-16.5-1.1.2-2.2.6-3.2,1.1-4.3,1.8-8.3,4.5-10.9.5-7-7-6-19-13.8-26.1-1.1-.9-2.2-1.8-3.1-2.7-5.5-5.3-8.8-11.6-10.4-18.4-.3-1.1-.5-2.3-.7-3.4,0-1.2,0-2.3,0-3.5s0-2.3.1-3.5c1.1-5,1.7-10,2.3-15,.1-1.2.3-2.5.4-3.7,1.6-13.1,5.7-25.8,14.5-34.5.8-.8,1.6-1.5,2.5-2.2,2-3,7-1,8-4,5-14,21-13,31-21.9,1.2-.6,2.3-1.1,3.3-1.7,3.2-1.7,6.5-3.7,9.8-5.5,1.1,0,2.1-.1,3.2-.2,1.6.3,3.6-.7,5.6.3,11,6,19,13,32,9,.8,0,3.8.6,6,2.2.7.6,1.4,1.2,1.9,2.1,6.2,2.7,10.2,7.7,11.2,13.7,4,12,12,18,17.1,28.2.4,1,.8,2,1.1,3.1.4,1.2.8,2.4,1.1,3.6,1.7,14.2,7.7,32.2-4.3,41.2-5,4-7-7-10.8-11-.4-.8-.9-1.6-1.3-2.4ZM309.3,678.9c4.7,0,9.7,2.1,14.9,3.4,1.1.4,2.2.8,3.4.9,1.1.1,2.2,0,3.4-.2,2.6-1.1,4.4-3.2,5.5-5.7.3-.8.6-1.7.8-2.6.7-10.7-9.3-18.7-16.7-24.2-1.1-.2-2.3-.3-3.5-.3-6.8-.1-11.9,4.9-15.7,10.4-.6.9-1.2,1.8-1.8,2.8-1.6,2.7-4.6,6.7-3.6,10.7,1,5,6,6,10,5,1,0,2.1,0,3.3,0Z"/>
    <path d="M547.3,662.8c-5.2,9.6-4.7,18.9-3.1,28.3.2,1.2.4,2.3.6,3.5.2,1,.3,2.1.4,3.2.1,1.1.2,2.3.3,3.4,1.4,10.7-4.6,23.7,5.4,31.7,2,2,7-2,11.2-1,1.1,0,2.2-.1,3.3-.3,7.6-1.5,14.4-7,20.6-2.7,3,1.9,5.9,4.5,8.1,7.3.7,1,1.4,1.9,1.9,2.9,8,14.7-9,21.7-22,24.7-3,1,2,11-4.8,12.4-1,.3-1.9.5-2.9.6-4,.4-8.4-.7-12.8-1.8-1.1-.3-2.2-.5-3.3-.8-2.1-.4-5.1-.4-6.7-.8-1.1,0-2.2,0-3.3.3-1.3.1-2.6.2-3.9.3-8.3.8-11.3,14.8-18.3,10.8-5-3-10-10-16.5-11.6-1-.3-2-.8-2.9-1.3-.7-.4-1.4-.8-2.1-1.3-17.5,1.1-20.5-13.9-16.4-29.2,0-1.3.2-2.5.4-3.7.4-2.4,1.2-4.8,2.5-7,.9-.6,1.7-1.3,2.4-2,6.5-6.7,6.3-18.9,3.7-27.5-.5-1.2-1-2.5-1.4-3.7-.5-1.2-.9-2.5-1.3-3.7,0-1,0-2,.2-3,.4-4,1.1-7.9,1.9-12,0-.7-.1-1.5-.2-2.2-.3-2.2-1-4.5-2-6.7-.2-.9-.5-1.8-.7-2.7-1.6-4.4-1.6-10.4-3.6-11.4-9-2-19,4-26,9-3,3-4-2-5.7-4.3-.4-1.1-.8-2.2-1-3.3-2.5-10.9,4.6-21.6,14-27.3.7-.5,1.4-1,2.2-1.4s1.5-.9,2.3-1.3c1-.7,2.2-1.4,3.4-2.2,4.8-1.3,9.1-3.5,13.1-6.2,1-.7,2-1.4,3-2.1,4.9-3,9.9,0,13.9-1,9-2.7,9.1-15.9,16.9-22.2.9-.7,1.8-1.3,2.9-1.8,7.1-4.9,17.1-4.9,22.1-1.9,8,6-5,19,1.7,29.3.6.8,1.4,1.5,2.5,2.1,1,.6,2.3,1.2,3.8,1.7,1,.2,2.2.3,3.6.3h3.1c1,0,2.1,0,3.3,0,9,1.6,16,9.6,26,10.6,3.3,0,4.6,4.2,5.4,8.1.2.8.3,1.6.5,2.3.4,1.1.7,2.2.9,3.3s.3,2.2.3,3.4c0,.8,0,1.6,0,2.5-5,9.5-12,18.5-22,19.5-6,1-9-6-11.2-12-.5-1-1.1-2-1.7-2.8-.6-.8-1.3-1.6-2-2.2-.5-.5-1.2-.9-2.1-1.1s-1.8-.2-2.8,0-1.9.5-2.6,1.2c-.7.6-1.3,1.6-1.6,2.9s-.4,2.3-.6,3.9Z"/>
    <path d="M746.3,623.7c4.7,2.3,8.7,5.3,13.3,6,1,.3,2.1.4,3.1.5,5.2.5,10.5-.7,16.6-4.3.9,0,1.8,0,2.6,0,1,0,2,.2,3,.3,5.1.7,9.1,3.7,10.1,8.7,0,4,0,8,1,12,8,15,13,30,17.3,46.3.1.9.2,1.9.1,2.8,0,.9-.2,1.9-.5,2.9-2,4-4,10-2.8,15.2.2,1.2.4,2.3.6,3.5.3,2.4.4,4.8.2,7.3-.2,1-.1,1.9.1,2.8.2.9.6,1.8,1.1,2.6.4,5.8,1.6,11.1,3.1,16.5.3,1.1.6,2.1.9,3.2.8,3.9,3.8,7.9.8,10.9-5,7-2,15-5,22-1,2-3,3-4,4-.8.5-1.6.5-2.4.2-1.5-.6-2.9-2.5-4.5-4.6-.8-1-1.6-2.1-2.5-3.1-.9-1-1.8-1.8-2.8-2.5-1-.6-2.2-1-3.4-1-1.3-.2-2.6-.4-3.8-.4-5.7.3-6.7,10.3-11.7,9.3-7.7-.7-11-7.8-15-14.1-.6-.9-1.2-1.8-1.8-2.7-4.2-4.2-9.2-11.2-14.2-5.2-1.5,2-3.2,3.7-5,5.2-.9.7-1.9,1.4-2.8,2-3.1,1.8-6.1,2.8-9.5,3.3-1.1.1-2.2.2-3.4.2-4.3-.7-5.3,3.3-6.3,5.3-2,5-2,12-7,13-7.9,2.6-11.2-5.5-16.8-9.8-.8-.6-1.7-1.2-2.6-1.6-6.5-6.5-13.5-11.5-24-13.1-1-.6-2-1.4-2.8-2.2-7.1-7.1-6.2-20.5-2-31.9.4-1.1.9-2.3,1.4-3.4.2-.9.6-1.6,1-2.2s.9-1.1,1.5-1.5c1.4-1,3.2-1.7,5.1-2.3s1.9-.5,2.9-.8c4.6-1.1,8.6-4.1,9.4-9.2,0-1,.1-2,.2-3.1.3-5.1,1.1-10,6.2-13.8.9-.7,1.9-1.3,2.9-1.9,2-.7,4-1.5,5.9-2.2,1-.4,2-.8,3-1.1,13-4.7,28,3.3,40-5.6.9-.8,1.7-1.7,2.4-2.7,4.8-6.7,4.7-17.8-2.3-20.4-1-.3-2-.7-3-1.1-2.5-1-4.9-1.6-7-1.9s-1.4-.1-2.1-.2c-1.8.1-4.8.1-6.7.8-1.2.4-2.3.9-3.4,1.6-.8.4-1.6.8-2.3,1.3-1,.6-2,1.3-3.1,2-6.3,4.5-8.3,13.5-17.3,15.5-1.2.2-2.3.3-3.5.3-7.5-1.3-16.5,4.7-19.5-2.3-1.7-3.5-2.5-7.1-2.5-10.7,0-1.2.1-2.4.3-3.6.9-12.5,6.7-21.3,16.4-26.3,1.1-.6,2.2-1.1,3.4-1.5,1.2-.3,2.5-.6,3.7-1,1.2-.3,2.5-.7,3.7-1,14,5.1,21-3.9,31.9-10.2.9-.1,1.7-.3,2.6-.4,2.5-.3,5.1-.5,7.7-.6,1.4,0,2.8-.1,4.2,0ZM737.9,712.2c-9.9-1.2-16.9,7.8-15,17.3,0,1.3,0,2.6,0,3.9.2,6.5,1.5,12.7,7.1,14.6,3.3.7,6.7-2.2,9.3-5.6.7-.8,1.3-1.7,1.8-2.5,5.9-6.9,5.9-19.9.5-27-1-.4-2.3-.7-3.7-.7Z"/>
  </g>
</svg>